# Created by Kenney (www.kenney.nl)

mtllib w2.mtl

g mergedBlocks

v -0.5625 1.602965E-31 -0.5
v -0.5625 1 -0.5
v -0.5 6.316725E-16 -0.4375
v -0.5 1 -0.4375
v 0.5625 3.609557E-16 -0.5
v 0.5 6.316725E-16 -0.4375
v 0.5625 1 -0.5
v 0.5 1 -0.4375
v 0.5 6.316725E-16 -0.5625
v -0.5 6.316725E-16 -0.5625
v 0.5 1 -0.5625
v -0.5 1 -0.5625

vn -0.7071068 0 0.7071068
vn 0.7071068 0 0.7071068
vn 0 -1 0
vn 0 1 0
vn 0.7071068 0 -0.7071068
vn 0 0 -1
vn -0.7071068 0 -0.7071068
vn 0 0 1

vt -0.5625 1.602965E-31
vt -0.5625 1
vt -0.5 6.316725E-16
vt -0.5 1
vt 0.5625 3.609557E-16
vt 0.5 6.316725E-16
vt 0.5625 1
vt 0.5 1
vt -0.5625 0.5
vt -0.5 0.5625
vt -0.5 0.4375
vt 0.5 0.5625
vt 0.5 0.4375
vt 0.5625 0.5
vt -0.5625 -0.5
vt -0.5 -0.4375
vt -0.5 -0.5625
vt 0.5 -0.5625
vt 0.5 -0.4375
vt 0.5625 -0.5
vt -0.5625 3.609557E-16
vt 0.5625 1.602965E-31

usemtl stone(Clone)

f 3/3/1 2/2/1 1/1/1
f 2/2/1 3/3/1 4/4/1
f 7/7/2 6/6/2 5/5/2
f 6/6/2 7/7/2 8/8/2
f 6/11/3 9/10/3 5/9/3
f 9/10/3 6/11/3 10/12/3
f 10/12/3 6/11/3 3/13/3
f 10/12/3 3/13/3 1/14/3
f 11/17/4 8/16/4 7/15/4
f 8/16/4 11/17/4 12/18/4
f 8/16/4 12/18/4 4/19/4
f 4/19/4 12/18/4 2/20/4
f 7/2/5 9/3/5 11/4/5
f 9/3/5 7/2/5 5/21/5
f 12/8/6 9/3/6 10/6/6
f 9/3/6 12/8/6 11/4/6
f 2/7/7 10/6/7 1/22/7
f 10/6/7 2/7/7 12/8/7
f 8/8/8 3/3/8 6/6/8
f 3/3/8 8/8/8 4/4/8

